<?xml version="1.0" encoding="iso-8859-1"?>
<!-- Generator: Adobe Illustrator 17.1.0, SVG Export Plug-In . SVG Version: 6.00 Build 0)  -->
<!DOCTYPE svg PUBLIC "-//W3C//DTD SVG 1.0//EN" "http://www.w3.org/TR/2001/REC-SVG-20010904/DTD/svg10.dtd">
<svg version="1.0" xmlns="http://www.w3.org/2000/svg" xmlns:xlink="http://www.w3.org/1999/xlink" x="0px" y="0px" width="110px"
	 height="110px" viewBox="0 0 110 110" style="enable-background:new 0 0 110 110;" xml:space="preserve">
<g id="Artboard">
</g>
<g id="Multicolor">
	<circle style="fill:#25B7D3;" cx="55" cy="55" r="55"/>
	<g>
		<g>
			<path style="fill:#F0F1F1;" d="M83.828,61.098c-0.475-0.997-1.669-1.42-2.666-0.945l-6.837,3.258l-3.573-1.979l4.257-2.029
				c0.997-0.475,1.42-1.668,0.945-2.666c-0.475-0.997-1.669-1.42-2.666-0.945l-6.837,3.258l-1.441-0.676v-7.037l1.329-0.692
				l6.921,3.074c1.01,0.449,2.191-0.006,2.64-1.016c0.449-1.01-0.007-2.192-1.016-2.64l-4.31-1.915l3.519-2.073l6.921,3.074
				c1.01,0.448,2.191-0.006,2.64-1.016c0.449-1.01-0.007-2.191-1.016-2.64l-4.31-1.915l3.544-2.088
				c0.952-0.561,1.268-1.787,0.708-2.739c-0.561-0.952-1.787-1.269-2.738-0.708l-3.544,2.088l0.413-4.698
				c0.097-1.1-0.716-2.07-1.817-2.168c-1.1-0.097-2.071,0.717-2.168,1.817l-0.664,7.544l-3.519,2.073l0.413-4.698
				c0.097-1.1-0.716-2.071-1.817-2.168c-1.1-0.097-2.071,0.717-2.168,1.817l-0.664,7.544l-1.125,0.704l-6.192-3.715l0.019-1.159
				l6.163-4.402c0.899-0.642,1.107-1.891,0.465-2.79c-0.642-0.899-1.892-1.107-2.79-0.465l-3.837,2.741v-4.084l6.163-4.402
				c0.899-0.642,1.107-1.891,0.465-2.79c-0.642-0.899-1.892-1.106-2.79-0.465l-3.837,2.741V25c0-1.104-0.895-2-2-2
				c-1.105,0-2,0.896-2,2v4.114l-3.837-2.741c-0.898-0.642-2.147-0.434-2.79,0.465c-0.642,0.899-0.434,2.148,0.465,2.79l6.163,4.402
				v4.084l-3.837-2.741c-0.898-0.642-2.147-0.434-2.79,0.465c-0.642,0.899-0.434,2.148,0.465,2.79l6.163,4.402l0.019,1.159
				l-6.192,3.715l-1.125-0.704l-0.664-7.544c-0.097-1.1-1.067-1.914-2.168-1.817c-1.101,0.097-1.914,1.068-1.817,2.168l0.413,4.698
				l-3.519-2.073l-0.664-7.544c-0.097-1.101-1.067-1.914-2.168-1.817c-1.101,0.097-1.914,1.068-1.817,2.168l0.413,4.698
				l-3.544-2.088c-0.952-0.561-2.178-0.244-2.738,0.708s-0.244,2.177,0.708,2.739l3.544,2.088l-4.31,1.915
				c-1.009,0.448-1.465,1.63-1.016,2.64c0.448,1.01,1.63,1.464,2.64,1.016l6.921-3.074l3.519,2.073l-4.31,1.915
				c-1.009,0.448-1.465,1.63-1.016,2.64c0.448,1.01,1.63,1.465,2.64,1.016l6.921-3.074l1.329,0.692v7.037
				c-0.202,0.039-1.441,0.676-1.441,0.676l-6.837-3.258c-0.997-0.475-2.191-0.052-2.666,0.945c-0.475,0.998-0.052,2.191,0.945,2.666
				l4.257,2.029l-3.573,1.979l-6.837-3.258c-0.997-0.475-2.191-0.052-2.666,0.945c-0.475,0.998-0.052,2.191,0.945,2.666l4.257,2.029
				l-3.598,1.993c-0.966,0.535-1.316,1.752-0.781,2.719c0.535,0.966,1.752,1.316,2.719,0.781l3.599-1.993l-0.539,4.685
				c-0.126,1.097,0.661,2.09,1.758,2.216c1.097,0.126,2.089-0.661,2.215-1.759l0.865-7.524l3.573-1.979l-0.539,4.685
				c-0.126,1.097,0.661,2.09,1.758,2.215c1.097,0.126,2.089-0.661,2.215-1.758l0.865-7.524l1.059-0.616l6.463,3.878l-0.019,1.159
				l-6.163,4.402c-0.899,0.643-1.107,1.892-0.465,2.79C46.774,74.709,47.389,75,48.013,75c0.402,0,0.809-0.121,1.161-0.372
				l3.837-2.741v4.083l-6.163,4.402c-0.899,0.643-1.107,1.892-0.465,2.79C46.774,83.709,47.389,84,48.013,84
				c0.402,0,0.809-0.121,1.161-0.372l3.837-2.741V85c0,1.104,0.895,2,2,2c1.105,0,2-0.896,2-2v-4.113l3.837,2.741
				C61.201,83.879,61.607,84,62.01,84c0.624,0,1.239-0.291,1.629-0.838c0.642-0.898,0.434-2.147-0.465-2.79l-6.163-4.402v-4.083
				l3.837,2.741C61.201,74.879,61.607,75,62.01,75c0.624,0,1.239-0.291,1.629-0.838c0.642-0.898,0.434-2.147-0.465-2.79
				l-6.163-4.402l-0.019-1.159l6.463-3.878l1.059,0.616l0.865,7.524c0.126,1.097,1.118,1.885,2.215,1.758
				c1.098-0.126,1.885-1.118,1.758-2.215l-0.539-4.685l3.573,1.979l0.865,7.524c0.126,1.097,1.118,1.885,2.215,1.759
				c1.098-0.126,1.884-1.119,1.758-2.216l-0.539-4.685l3.598,1.993c0.966,0.535,2.183,0.186,2.719-0.781
				c0.535-0.966,0.186-2.183-0.781-2.719l-3.598-1.993l4.257-2.029C83.879,63.289,84.303,62.096,83.828,61.098z"/>
		</g>
		<g>
			<g>
				<path style="fill:#FFFFFF;" d="M68.958,40.006c0.097-1.1-0.716-2.071-1.817-2.168c-1.1-0.097-2.071,0.717-2.168,1.817
					l-0.453,5.152l4.403-4.403L68.958,40.006z"/>
			</g>
			<g>
				<path style="fill:#FFFFFF;" d="M56.992,44.188l0.019-1.159l6.163-4.402c0.899-0.642,1.107-1.891,0.465-2.79
					c-0.642-0.899-1.892-1.107-2.79-0.465l-3.837,2.741v-4.084l6.163-4.402c0.899-0.642,1.107-1.891,0.465-2.79
					c-0.642-0.899-1.892-1.106-2.79-0.465l-3.837,2.741V25c0-1.104-0.895-2-2-2c-1.105,0-2,0.896-2,2v4.114l-3.837-2.741
					c-0.898-0.642-2.147-0.434-2.79,0.465c-0.642,0.899-0.434,2.148,0.465,2.79l6.163,4.402v4.084l-3.837-2.741
					c-0.898-0.642-2.147-0.434-2.79,0.465c-0.642,0.899-0.434,2.148,0.465,2.79l6.163,4.402l0.019,1.159l-6.192,3.715l-1.125-0.704
					l-0.664-7.544c-0.097-1.1-1.067-1.914-2.168-1.817c-1.101,0.097-1.914,1.068-1.817,2.168l0.413,4.698l-3.519-2.073l-0.664-7.544
					c-0.097-1.101-1.067-1.914-2.168-1.817c-1.101,0.097-1.914,1.068-1.817,2.168l0.413,4.698l-3.544-2.088
					c-0.952-0.561-2.178-0.244-2.738,0.708s-0.244,2.177,0.708,2.739l3.544,2.088l-4.31,1.915c-1.009,0.448-1.465,1.63-1.016,2.64
					c0.448,1.01,1.63,1.464,2.64,1.016l6.921-3.074l3.519,2.073l-4.31,1.915c-1.009,0.448-1.465,1.63-1.016,2.64
					c0.448,1.01,1.63,1.465,2.64,1.016l6.921-3.074l1.329,0.692v7.037c-0.202,0.039-1.441,0.676-1.441,0.676l-6.837-3.258
					c-0.997-0.475-2.191-0.052-2.666,0.945c-0.475,0.998-0.052,2.191,0.945,2.666l4.257,2.029l-3.573,1.979l-6.837-3.258
					c-0.997-0.475-2.191-0.052-2.666,0.945c-0.475,0.998-0.052,2.191,0.945,2.666l4.257,2.029l-3.598,1.993
					c-0.966,0.535-1.316,1.752-0.781,2.719c0.535,0.966,1.752,1.316,2.719,0.781l3.599-1.993l-0.539,4.685
					c-0.082,0.716,0.228,1.382,0.756,1.798l3.461-3.461l0.621-5.403l3.573-1.979l-0.414,3.602l4.549-4.549l0.165-1.434l1.059-0.616
					l0.516,0.31l15-15L56.992,44.188z"/>
			</g>
			<g>
				<path style="fill:#FFFFFF;" d="M72.727,35.086l-0.146,1.66l3.182-3.182c-0.256-0.158-0.548-0.267-0.868-0.296
					C73.794,33.173,72.824,33.986,72.727,35.086z"/>
			</g>
		</g>
	</g>
</g>
</svg>
