<?xml version="1.0" encoding="iso-8859-1"?>
<!-- Generator: Adobe Illustrator 17.1.0, SVG Export Plug-In . SVG Version: 6.00 Build 0)  -->
<!DOCTYPE svg PUBLIC "-//W3C//DTD SVG 1.0//EN" "http://www.w3.org/TR/2001/REC-SVG-20010904/DTD/svg10.dtd">
<svg version="1.0" xmlns="http://www.w3.org/2000/svg" xmlns:xlink="http://www.w3.org/1999/xlink" x="0px" y="0px" width="110px"
	 height="110px" viewBox="0 0 110 110" style="enable-background:new 0 0 110 110;" xml:space="preserve">
<g id="Artboard">
</g>
<g id="Multicolor">
	<circle style="fill:#25B7D3;" cx="55" cy="55" r="55"/>
	<g>
		<g>
			<path style="fill:#E2E4E5;" d="M54.96,23h-0.04c-1.094,0-1.98,0.886-1.98,1.98v2.187h4V24.98C56.94,23.886,56.054,23,54.96,23z"
				/>
		</g>
		<g>
			<path style="fill:#3E3E3F;" d="M87,57.64C84.5,54.79,80.82,53,76.73,53c-4.42,0-8.35,2.09-10.85,5.34
				C63.38,55.09,59.45,53,55.03,53s-8.35,2.09-10.85,5.34C41.68,55.09,37.75,53,33.33,53c-4.09,0-7.77,1.79-10.27,4.64
				C23.77,40.6,37.81,27,55.03,27S86.29,40.6,87,57.64z"/>
		</g>
		<g>
			<path style="fill:#5B5C5F;" d="M55.03,27c-17.22,0-31.26,13.6-31.97,30.64c2.5-2.85,6.18-4.64,10.27-4.64
				c2.693,0,5.198,0.784,7.315,2.125l25.959-25.959C63.013,27.772,59.113,27,55.03,27z"/>
		</g>
		<g>
			<g>
				<path style="fill:#E2E4E5;" d="M48.94,87c-3.838,0-6.623-2.068-7.642-5.674c-0.301-1.063,0.318-2.168,1.381-2.468
					c1.063-0.301,2.168,0.318,2.468,1.381C45.68,82.123,46.885,83,48.94,83c3.807,0,4-3.332,4-4V53c0-1.104,0.896-2,2-2s2,0.896,2,2
					v26C56.94,82.216,54.809,87,48.94,87z"/>
			</g>
		</g>
		<g>
			<path style="fill:#5B5C5F;" d="M66,54.54c0,1.28-0.06,2.55-0.18,3.8c-2.5-3.23-6.42-5.3-10.82-5.3s-8.32,2.07-10.82,5.3
				c-0.12-1.25-0.18-2.52-0.18-3.8c0-10.65,4.17-20.33,10.97-27.5h0.06C61.83,34.21,66,43.89,66,54.54z"/>
		</g>
		<g>
			<path style="fill:#9E9FA0;" d="M60.823,34.946c-1.624-2.887-3.589-5.559-5.853-7.946h-0.06
				c-6.203,6.541-10.207,15.174-10.863,24.723L60.823,34.946z"/>
		</g>
	</g>
</g>
</svg>
