<?xml version="1.0" encoding="iso-8859-1"?>
<!-- Generator: Adobe Illustrator 17.1.0, SVG Export Plug-In . SVG Version: 6.00 Build 0)  -->
<!DOCTYPE svg PUBLIC "-//W3C//DTD SVG 1.0//EN" "http://www.w3.org/TR/2001/REC-SVG-20010904/DTD/svg10.dtd">
<svg version="1.0" xmlns="http://www.w3.org/2000/svg" xmlns:xlink="http://www.w3.org/1999/xlink" x="0px" y="0px" width="110px"
	 height="110px" viewBox="0 0 110 110" style="enable-background:new 0 0 110 110;" xml:space="preserve">
<g id="Artboard">
</g>
<g id="Multicolor">
	<circle style="fill:#25B7D3;" cx="55" cy="55" r="55"/>
	<g>
		<g>
			<path style="fill:#F0F1F1;" d="M87,68c0-4.898-3.524-8.967-8.174-9.826C76.552,52.784,71.218,49,65,49
				c-5.415,0-10.145,2.879-12.782,7.179C50.327,54.814,48.011,54,45.5,54c-5.243,0-9.658,3.512-11.042,8.31
				C28.65,60.845,23,64.742,23,70c0,5.188,5.528,9.11,11.345,7.716C35.93,80.283,38.761,82,42,82c2.811,0,5.32-1.29,6.97-3.309
				C51.69,83.642,56.952,87,63,87c6.33,0,11.785-3.686,14.38-9.019C82.725,77.78,87,73.395,87,68z"/>
		</g>
		<g>
			<path style="fill:#F37A10;" d="M80.833,22.833c-23.954,0-44.044,16.772-49.196,39.185c0.943-0.038,1.914,0.044,2.892,0.291
				c0.866-3.002,2.919-5.5,5.618-6.95c6.917-15.607,22.543-26.527,40.685-26.527c2.093,0,4.15,0.152,6.167,0.434v-6.048
				C84.978,22.969,82.921,22.833,80.833,22.833z"/>
		</g>
		<g>
			<path style="fill:#FACB1B;" d="M80.833,28.833c-18.142,0-33.768,10.919-40.685,26.527c1.615-0.867,3.461-1.36,5.424-1.36
				c0.649,0,1.284,0.057,1.903,0.161c6.654-11.539,19.108-19.328,33.358-19.328c2.1,0,4.158,0.177,6.167,0.503v-6.069
				C84.983,28.986,82.926,28.833,80.833,28.833z"/>
		</g>
		<g>
			<path style="fill:#47C4B7;" d="M80.833,34.833c-14.25,0-26.705,7.789-33.358,19.328c1.776,0.299,3.412,1.006,4.814,2.019
				c1.139-1.857,2.669-3.447,4.475-4.657c5.95-6.56,14.535-10.689,24.068-10.689c2.11,0,4.169,0.214,6.167,0.601v-6.099
				C84.991,35.011,82.933,34.833,80.833,34.833z"/>
		</g>
		<g>
			<path style="fill:#FFFFFF;" d="M65.071,49c-5.415,0-10.145,2.879-12.782,7.179C50.398,54.814,48.082,54,45.571,54
				c-5.243,0-9.658,3.512-11.042,8.31c-5.808-1.465-11.458,2.432-11.458,7.69c0,5.188,5.528,9.11,11.345,7.716
				C36.002,80.283,38.833,82,42.071,82c2.33,0,4.444-0.896,6.042-2.348c0.004-0.004,0.938-0.945,0.94-0.94L75,52.765
				C72.355,50.425,68.881,49,65.071,49z"/>
		</g>
	</g>
</g>
</svg>
