<?xml version="1.0" encoding="iso-8859-1"?>
<!-- Generator: Adobe Illustrator 17.1.0, SVG Export Plug-In . SVG Version: 6.00 Build 0)  -->
<!DOCTYPE svg PUBLIC "-//W3C//DTD SVG 1.0//EN" "http://www.w3.org/TR/2001/REC-SVG-20010904/DTD/svg10.dtd">
<svg version="1.0" xmlns="http://www.w3.org/2000/svg" xmlns:xlink="http://www.w3.org/1999/xlink" x="0px" y="0px" width="110px"
	 height="110px" viewBox="0 0 110 110" style="enable-background:new 0 0 110 110;" xml:space="preserve">
<g id="Artboard">
</g>
<g id="Multicolor">
	<circle style="fill:#25B7D3;" cx="55" cy="55" r="55"/>
	<g>
		<g>
			<path style="fill:#0484AB;" d="M36.827,68.248c-0.834,1.793-2.963,2.57-4.755,1.737c-1.793-0.834-2.57-2.963-1.737-4.755
				C31.168,63.436,38.109,57,38.109,57S37.661,66.455,36.827,68.248z"/>
		</g>
		<g>
			<path style="fill:#0484AB;" d="M79.827,69.567c-0.834,1.793-2.963,2.57-4.756,1.737s-2.57-2.963-1.737-4.755
				c0.834-1.793,7.774-8.229,7.774-8.229S80.66,67.774,79.827,69.567z"/>
		</g>
		<g>
			<path style="fill:#0484AB;" d="M41.827,84.248c-0.834,1.793-2.963,2.57-4.755,1.737c-1.793-0.834-2.57-2.963-1.737-4.755
				C36.168,79.436,43.109,73,43.109,73S42.661,82.455,41.827,84.248z"/>
		</g>
		<g>
			<path style="fill:#0484AB;" d="M67.936,84.567c-0.834,1.793-2.963,2.57-4.755,1.737c-1.793-0.834-2.57-2.963-1.737-4.755
				c0.834-1.793,7.774-8.229,7.774-8.229S68.769,82.774,67.936,84.567z"/>
		</g>
		<g>
			<path style="fill:#0484AB;" d="M56.936,74.567c-0.834,1.793-2.963,2.57-4.755,1.737c-1.793-0.834-2.57-2.963-1.737-4.755
				c0.834-1.793,7.774-8.229,7.774-8.229S57.769,72.774,56.936,74.567z"/>
		</g>
		<g>
			<path style="fill:#F0F1F1;" d="M87,42c0-4.898-3.524-8.967-8.174-9.826C76.552,26.784,71.218,23,65,23
				c-5.415,0-10.145,2.879-12.782,7.179C50.327,28.814,48.011,28,45.5,28c-5.243,0-9.658,3.512-11.042,8.31
				C28.65,34.845,23,38.742,23,44c0,5.188,5.528,9.11,11.345,7.716C35.93,54.283,38.761,56,42,56c2.811,0,5.32-1.29,6.97-3.309
				C51.69,57.642,56.952,61,63,61c6.33,0,11.785-3.686,14.38-9.019C82.725,51.78,87,47.395,87,42z"/>
		</g>
		<g>
			<path style="fill:#FFFFFF;" d="M65.071,23c-5.415,0-10.145,2.879-12.782,7.179C50.398,28.814,48.082,28,45.571,28
				c-5.243,0-9.658,3.512-11.042,8.31c-5.808-1.465-11.458,2.432-11.458,7.69c0,5.188,5.528,9.11,11.345,7.716
				C36.002,54.283,38.833,56,42.071,56c2.33,0,4.444-0.896,6.042-2.348c0.004-0.004,0.938-0.945,0.94-0.94L75,26.765
				C72.355,24.425,68.881,23,65.071,23z"/>
		</g>
	</g>
</g>
</svg>
