<?xml version="1.0" encoding="iso-8859-1"?>
<!-- Generator: Adobe Illustrator 17.1.0, SVG Export Plug-In . SVG Version: 6.00 Build 0)  -->
<!DOCTYPE svg PUBLIC "-//W3C//DTD SVG 1.0//EN" "http://www.w3.org/TR/2001/REC-SVG-20010904/DTD/svg10.dtd">
<svg version="1.0" xmlns="http://www.w3.org/2000/svg" xmlns:xlink="http://www.w3.org/1999/xlink" x="0px" y="0px" width="110px"
	 height="110px" viewBox="0 0 110 110" style="enable-background:new 0 0 110 110;" xml:space="preserve">
<g id="Artboard">
</g>
<g id="Multicolor">
	<circle style="fill:#25B7D3;" cx="55" cy="55" r="55"/>
	<g>
		<g>
			<path style="fill:#F0F1F1;" d="M87,42c0-4.898-3.524-8.967-8.174-9.826C76.552,26.784,71.218,23,65,23
				c-5.415,0-10.145,2.879-12.782,7.179C50.327,28.814,48.011,28,45.5,28c-5.243,0-9.658,3.512-11.042,8.31
				C28.65,34.845,23,38.742,23,44c0,5.188,5.528,9.11,11.345,7.716C35.93,54.283,38.761,56,42,56c2.811,0,5.32-1.29,6.97-3.309
				C51.69,57.642,56.952,61,63,61c6.33,0,11.785-3.686,14.38-9.019C82.725,51.78,87,47.395,87,42z"/>
		</g>
		<g>
			<path style="fill:#FFFFFF;" d="M65.071,23c-5.415,0-10.145,2.879-12.782,7.179C50.398,28.814,48.082,28,45.571,28
				c-5.243,0-9.658,3.512-11.042,8.31c-5.808-1.465-11.458,2.432-11.458,7.69c0,5.188,5.528,9.11,11.345,7.716
				C36.002,54.283,38.833,56,42.071,56c2.33,0,4.444-0.896,6.042-2.348c0.004-0.004,0.938-0.945,0.94-0.94L75,26.765
				C72.355,24.425,68.881,23,65.071,23z"/>
		</g>
		<g>
			<path style="fill:#FFFFFF;" d="M46.388,82.671l-2.029-1.646l2.062-1.605c0.654-0.509,0.771-1.451,0.262-2.105
				c-0.509-0.654-1.451-0.771-2.105-0.262l-1.13,0.879V76.5c0-0.828-0.672-1.5-1.5-1.5s-1.5,0.672-1.5,1.5v1.351L39.4,77
				c-0.643-0.522-1.588-0.424-2.11,0.22s-0.424,1.588,0.22,2.11l2.029,1.646l-2.062,1.605c-0.654,0.509-0.771,1.451-0.262,2.105
				c0.509,0.654,1.451,0.771,2.105,0.262l1.13-0.879V85.5c0,0.828,0.672,1.5,1.5,1.5s1.5-0.672,1.5-1.5v-1.351L44.498,85
				c0.643,0.522,1.588,0.424,2.11-0.22S47.032,83.193,46.388,82.671z"/>
		</g>
		<g>
			<path style="fill:#FFFFFF;" d="M59.286,72.671l-2.029-1.646l2.062-1.605c0.654-0.509,0.771-1.451,0.262-2.105
				c-0.509-0.654-1.451-0.771-2.105-0.262l-1.13,0.879V66.5c0-0.828-0.672-1.5-1.5-1.5s-1.5,0.672-1.5,1.5v1.351L52.297,67
				c-0.643-0.522-1.588-0.424-2.11,0.22s-0.424,1.588,0.22,2.11l2.029,1.646l-2.062,1.605c-0.654,0.509-0.771,1.451-0.262,2.105
				c0.509,0.654,1.451,0.771,2.105,0.262l1.13-0.879V75.5c0,0.828,0.672,1.5,1.5,1.5s1.5-0.672,1.5-1.5v-1.351L57.396,75
				c0.643,0.522,1.588,0.424,2.11-0.22S59.929,73.193,59.286,72.671z"/>
		</g>
		<g>
			<path style="fill:#FFFFFF;" d="M71.388,82.671l-2.029-1.646l2.062-1.605c0.654-0.509,0.771-1.451,0.262-2.105
				c-0.509-0.654-1.451-0.771-2.105-0.262l-1.13,0.879V76.5c0-0.828-0.672-1.5-1.5-1.5s-1.5,0.672-1.5,1.5v1.351L64.4,77
				c-0.643-0.522-1.588-0.424-2.11,0.22s-0.424,1.588,0.22,2.11l2.029,1.646l-2.062,1.605c-0.654,0.509-0.771,1.451-0.262,2.105
				c0.509,0.654,1.451,0.771,2.105,0.262l1.13-0.879V85.5c0,0.828,0.672,1.5,1.5,1.5s1.5-0.672,1.5-1.5v-1.351L69.498,85
				c0.643,0.522,1.588,0.424,2.11-0.22S72.032,83.193,71.388,82.671z"/>
		</g>
		<g>
			<path style="fill:#0484AB;" d="M34.718,68.929c-0.834,1.793-2.963,2.57-4.755,1.737c-1.793-0.834-2.57-2.963-1.737-4.755
				S36,57.681,36,57.681S35.552,67.136,34.718,68.929z"/>
		</g>
		<g>
			<path style="fill:#0484AB;" d="M80.718,70.929c-0.834,1.793-2.963,2.57-4.755,1.737s-2.57-2.963-1.737-4.755
				C75.059,66.117,82,59.681,82,59.681S81.552,69.136,80.718,70.929z"/>
		</g>
	</g>
</g>
</svg>
