<?xml version="1.0" encoding="iso-8859-1"?>
<!-- Generator: Adobe Illustrator 17.1.0, SVG Export Plug-In . SVG Version: 6.00 Build 0)  -->
<!DOCTYPE svg PUBLIC "-//W3C//DTD SVG 1.0//EN" "http://www.w3.org/TR/2001/REC-SVG-20010904/DTD/svg10.dtd">
<svg version="1.0" xmlns="http://www.w3.org/2000/svg" xmlns:xlink="http://www.w3.org/1999/xlink" x="0px" y="0px" width="110px"
	 height="110px" viewBox="0 0 110 110" style="enable-background:new 0 0 110 110;" xml:space="preserve">
<g id="Artboard">
</g>
<g id="Multicolor">
	<circle style="fill:#25B7D3;" cx="55" cy="55" r="55"/>
	<g>
		<g>
			<polygon style="fill:#FBE158;" points="87,55 73.485,62.654 77.627,77.628 62.654,73.485 55,87 47.346,73.485 32.372,77.627 
				36.515,62.654 23,55 36.515,47.346 32.373,32.372 47.346,36.515 55,23 62.654,36.515 77.628,32.373 73.485,47.346 			"/>
		</g>
		<g>
			<polygon style="fill:#FBEC9A;" points="77.553,32.394 62.654,36.515 55,23 47.346,36.515 32.373,32.372 36.515,47.346 23,55 
				36.515,62.654 32.393,77.553 			"/>
		</g>
		<g>
			<circle style="fill:#F3B607;" cx="55" cy="55" r="20"/>
		</g>
		<g>
			<path style="fill:#FACB1B;" d="M55,35c-11.046,0-20,8.954-20,20c0,5.509,2.229,10.497,5.832,14.114l28.282-28.282
				C65.497,37.229,60.509,35,55,35z"/>
		</g>
	</g>
</g>
</svg>
