<?xml version="1.0" encoding="iso-8859-1"?>
<!-- Generator: Adobe Illustrator 17.1.0, SVG Export Plug-In . SVG Version: 6.00 Build 0)  -->
<!DOCTYPE svg PUBLIC "-//W3C//DTD SVG 1.0//EN" "http://www.w3.org/TR/2001/REC-SVG-20010904/DTD/svg10.dtd">
<svg version="1.0" xmlns="http://www.w3.org/2000/svg" xmlns:xlink="http://www.w3.org/1999/xlink" x="0px" y="0px" width="110px"
	 height="110px" viewBox="0 0 110 110" style="enable-background:new 0 0 110 110;" xml:space="preserve">
<g id="Artboard">
</g>
<g id="Multicolor">
	<circle style="fill:#25B7D3;" cx="55" cy="55" r="55"/>
	<g>
		<g>
			<polygon style="fill:#FBE158;" points="78,54.5 68.075,60.121 71.117,71.117 60.121,68.075 54.5,78 48.879,68.075 37.883,71.117 
				40.925,60.121 31,54.5 40.925,48.879 37.883,37.883 48.879,40.925 54.5,31 60.121,40.925 71.117,37.883 68.075,48.879 			"/>
		</g>
		<g>
			<polygon style="fill:#FBEC9A;" points="71.062,37.898 60.121,40.925 54.5,31 48.879,40.925 37.883,37.883 40.925,48.879 31,54.5 
				40.925,60.121 37.898,71.063 			"/>
		</g>
		<g>
			<circle style="fill:#F3B607;" cx="54.5" cy="54.5" r="14.688"/>
		</g>
		<g>
			<path style="fill:#FACB1B;" d="M54.5,39.813c-8.112,0-14.688,6.576-14.688,14.687c0,4.046,1.637,7.709,4.283,10.365
				l20.769-20.769C62.209,41.449,58.546,39.813,54.5,39.813z"/>
		</g>
		<g>
			<path style="fill:#F0F1F1;" d="M60.671,36.261c1.727-5.866-3.506-11.453-9.509-10.04C49.019,24.228,46.156,23,43,23
				c-6.627,0-12,5.373-12,12h-2c-3.314,0-6,2.686-6,6s2.686,6,6,6h28c3.314,0,6-2.686,6-6C63,39.071,62.086,37.359,60.671,36.261z"
				/>
		</g>
		<g>
			<path style="fill:#F0F1F1;" d="M84.671,76.261c1.727-5.866-3.506-11.453-9.509-10.04C73.019,64.228,70.156,63,67,63
				c-6.627,0-12,5.373-12,12h-2c-3.314,0-6,2.686-6,6s2.686,6,6,6h28c3.314,0,6-2.686,6-6C87,79.071,86.086,77.359,84.671,76.261z"
				/>
		</g>
		<g>
			<path style="fill:#FFFFFF;" d="M51.162,26.221C49.019,24.228,46.156,23,43,23c-6.627,0-12,5.373-12,12h-2c-3.314,0-6,2.686-6,6
				s2.686,6,6,6h1.506l20.806-20.806C51.263,26.204,51.211,26.209,51.162,26.221z"/>
		</g>
		<g>
			<path style="fill:#FFFFFF;" d="M75.162,66.221C73.019,64.228,70.156,63,67,63c-6.627,0-12,5.373-12,12h-2c-3.314,0-6,2.686-6,6
				s2.686,6,6,6h1.506l20.806-20.806C75.263,66.204,75.211,66.209,75.162,66.221z"/>
		</g>
	</g>
</g>
</svg>
