<?xml version="1.0" encoding="iso-8859-1"?>
<!-- Generator: Adobe Illustrator 17.1.0, SVG Export Plug-In . SVG Version: 6.00 Build 0)  -->
<!DOCTYPE svg PUBLIC "-//W3C//DTD SVG 1.0//EN" "http://www.w3.org/TR/2001/REC-SVG-20010904/DTD/svg10.dtd">
<svg version="1.0" xmlns="http://www.w3.org/2000/svg" xmlns:xlink="http://www.w3.org/1999/xlink" x="0px" y="0px" width="110px"
	 height="110px" viewBox="0 0 110 110" style="enable-background:new 0 0 110 110;" xml:space="preserve">
<g id="Artboard">
</g>
<g id="Multicolor">
	<circle style="fill:#25B7D3;" cx="55" cy="55" r="55"/>
	<g>
		<g>
			<path style="fill:#84462D;" d="M31,27c0-2.209-1.791-4-4-4s-4,1.791-4,4v58c0,1.105,0.895,2,2,2h4c1.105,0,2-0.895,2-2V27z"/>
		</g>
		<g>
			<path style="fill:#9C6144;" d="M23,27v58c0,1.104,0.895,2,2,2h2V23C24.791,23,23,24.791,23,27z"/>
		</g>
		<path style="fill:#E2E4E5;" d="M85.702,48.127C71.395,41.783,55.65,36.544,39,32v32.049l-16,4.846V73l16-5
			c16.65-4.544,32.395-9.783,46.702-16.127C86.483,51.58,87,50.834,87,50S86.483,48.42,85.702,48.127z"/>
		<path style="fill:#FFFFFF;" d="M87,50c0-0.834-0.517-1.58-1.298-1.873C71.395,41.783,55.65,36.544,39,32l-16-4v4.105L39,36v14H87z
			"/>
		<g>
			<path style="fill:#DF2C2C;" d="M52,64.239c4.418-1.353,8.75-2.771,13-4.252V40.013c-4.25-1.481-8.582-2.9-13-4.252V64.239z"/>
		</g>
		<g>
			<path style="fill:#DF2C2C;" d="M86.994,49.996c0,0.83-0.52,1.58-1.3,1.87c-2.25,1-4.53,1.96-6.85,2.9
				c0.1-1.52,0.15-3.12,0.15-4.77s-0.05-3.25-0.15-4.77c2.32,0.94,4.6,1.9,6.85,2.9C86.474,48.416,86.994,49.166,86.994,49.996z"/>
		</g>
		<g>
			<path style="fill:#FA5655;" d="M85.694,48.125c-2.25-1-4.53-1.96-6.85-2.9c0.1,1.52,0.15,3.12,0.15,4.77c0,0.001,0,0.003,0,0.004
				h7.999c0-0.001,0.001-0.003,0.001-0.004C86.994,49.166,86.474,48.416,85.694,48.125z"/>
		</g>
		<g>
			<path style="fill:#FA5655;" d="M52,50h13v-9.987c-4.25-1.481-8.582-2.9-13-4.252V50z"/>
		</g>
	</g>
</g>
</svg>
